<svg id="Layer_1" data-name="Layer 1" xmlns="http://www.w3.org/2000/svg" viewBox="0 0 872.12 204.84"><path d="M381.62,204.84q-19.8-5.57-28.15-17.73t-8.37-29.5V137q0-10-4.4-15.6t-13.53-5.57V95.46c6.07,0,10.59-1.82,13.53-5.51s4.4-8.94,4.4-15.77V53.6q0-17.34,8.37-29.45T381.62,6.47l5.68,15.92a20.31,20.31,0,0,0-12.18,11.18q-3.57,8.07-3.57,20V74.18a38,38,0,0,1-4.48,18.7,31,31,0,0,1-13.64,12.73,32.19,32.19,0,0,1,13.64,12.91,37.64,37.64,0,0,1,4.48,18.5v20.59q0,12,3.57,20a20.36,20.36,0,0,0,12.18,11.21Z" fill="#1d1d1d"/><path d="M409.9,168.35V79.46H393.56V58.68H409.9V46.5q0-18.43,10.63-28.43t29.9-10a52.76,52.76,0,0,1,7.66.56c2.61.37,5.47.89,8.56,1.56l-2.54,22c-1.62-.26-3.17-.5-4.72-.7a37.45,37.45,0,0,0-5.31-.32c-4.8,0-8.41,1.33-10.91,4s-3.68,6.42-3.68,11.34V58.68h21.09V79.46H439.49v88.89Z" fill="#1d1d1d"/><path d="M470,112.49Q470,88,483.71,72.3t37.91-15.67q24.27,0,38.11,15.63t13.76,40.23v2.15q0,24.71-13.72,40.29t-37.95,15.54q-24.33,0-38.07-15.54T470,114.64Zm29.47,2.15c0,10,1.78,18,5.27,24.07s9.2,9.06,17.06,9.06q11.41,0,16.77-9.12c3.53-6.09,5.32-14.08,5.32-24v-2.15q0-14.59-5.4-23.81t-16.89-9.22q-11.49,0-16.78,9.26t-5.35,23.77Z" fill="#1d1d1d"/><path d="M622.87,168.35H593.24V10.21h29.63Z" fill="#1d1d1d"/><path d="M678.31,32.42H648.72V10.21h29.59Zm0,135.93H648.72V58.68h29.59Z" fill="#1d1d1d"/><path d="M698.1,112.49q0-24.51,13.68-40.19c9.12-10.43,21.73-15.67,37.92-15.67s28.91,5.22,38.11,15.63,13.76,23.82,13.76,40.23v2.15q0,24.71-13.72,40.29t-38,15.54q-24.33,0-38.07-15.54T698.1,114.64Zm29.47,2.15c0,10,1.78,18,5.27,24.07s9.2,9.06,17,9.06q11.43,0,16.78-9.12t5.31-24v-2.15c0-9.73-1.78-17.66-5.39-23.81s-9.2-9.22-16.89-9.22-13.25,3.09-16.78,9.26-5.35,14.12-5.35,23.77Z" fill="#1d1d1d"/><path d="M811.92,188.84a20.31,20.31,0,0,0,12.17-11.21c2.38-5.37,3.53-12,3.53-20V137a36.9,36.9,0,0,1,4.68-18.64,31.46,31.46,0,0,1,14.2-12.67A31.35,31.35,0,0,1,832.3,93a37.37,37.37,0,0,1-4.68-18.8V53.6c0-8-1.15-14.65-3.53-20a20.27,20.27,0,0,0-12.17-11.18l5.67-15.92q19.7,5.55,28.08,17.68c5.63,8.08,8.41,17.89,8.41,29.45V74.18q0,10.25,4.36,15.77c2.93,3.69,7.49,5.51,13.68,5.51v20.39q-9.29,0-13.68,5.57T854.08,137v20.59c0,11.56-2.78,21.39-8.41,29.5s-14.95,14-28.08,17.73Z" fill="#1d1d1d"/><path d="M43.31,30.22C43.31,20,42,5.56,32.2,0H87.07C77.51,5.56,75.74,20.22,75.74,30.22v92.63c0,28.22-16.88,47.75-46,47.75C16,170.6,0,163.93,0,148c0-10.44,7.79-17.77,18-17.77,9.35,0,15.77,7.33,18.47,15.77-5.58,0-9.57,3.77-9.57,9.32,0,6,4.43,9.57,10.23,9.57,9.75,0,16.43-8.9,16.43-18.22a20.59,20.59,0,0,0-10.23-17.56Z" fill="#1d1d1d"/><path d="M122.56,114.18c4.24,18.44,16.21,33.32,37.77,33.32,6.21,0,20-1.55,24.67-6.22l1.77,1.33c-10.23,18.44-22.67,28-44.64,28-31.13,0-53.32-24.21-53.32-54.85,0-29.56,18.87-56.43,50.4-56.43,26.44,0,46.9,16.43,46.9,44,0,5.34-1.55,10.88-8,10.88ZM137,64.64c-12.89,0-16.21,24.67-16.21,33.77a76.6,76.6,0,0,0,.66,10c6-.69,11.78-1.57,17.76-2.46,10-1.55,17.36-7.11,17.36-17.76C156.57,78,148.33,64.64,137,64.64Z" fill="#1d1d1d"/><path d="M266.24,59.32c12,0,19.53,9.33,19.53,20.88,0,15.11-12,24.65-26.66,24.65a22.37,22.37,0,0,0,.89-5.56,13.32,13.32,0,0,0-13.55-13.55c-6,0-12.67,5.56-12.67,12v40.44c0,10.21,1.37,24.65,11.12,30.2H190c9.57-5.55,11.34-20.21,11.34-30.2V106.62c0-12.64-4.65-19.75-12.45-29.09,20.68-3.33,26.89-6,44.87-16.44V85.52C239.58,72.87,251.14,59.32,266.24,59.32Z" fill="#1d1d1d"/></svg>