<svg width="111" height="108" viewBox="0 0 111 108" fill="none" xmlns="http://www.w3.org/2000/svg">
<path d="M73.3047 15.5791L73.6475 16.3955L74.5 16.1543L89.0283 12.04L88.2451 27.0889L88.1992 27.9736L89.0732 28.126L103.955 30.71L96.7002 43.9326L96.2725 44.7119L96.9961 45.2275L109.279 53.9961L96.9951 62.7725L96.2734 63.2891L96.7002 64.0674L103.955 77.2891L89.0732 79.874L88.1992 80.0264L88.2451 80.9111L89.0283 95.959L74.5 91.8457L73.6475 91.6045L73.3047 92.4209L67.4697 106.326L56.1621 96.3232L55.5 95.7373L54.8379 96.3232L43.5293 106.326L37.6953 92.4209L37.3525 91.6045L36.5 91.8457L21.9707 95.959L22.7549 80.9111L22.8008 80.0264L21.9268 79.874L7.04395 77.2891L14.2998 64.0674L14.7266 63.2891L14.0049 62.7725L1.71973 53.9961L14.0039 45.2275L14.7275 44.7119L14.2998 43.9326L7.04395 30.71L21.9268 28.126L22.8008 27.9736L22.7549 27.0889L21.9707 12.04L36.5 16.1543L37.3525 16.3955L37.6953 15.5791L43.5293 1.67285L54.8379 11.6768L55.5 12.2627L56.1621 11.6768L67.4697 1.67285L73.3047 15.5791Z" fill="#231F20" stroke="white" stroke-width="2"/>
</svg>
