<svg width="544" height="377" viewBox="0 0 544 377" fill="none" xmlns="http://www.w3.org/2000/svg">
<path d="M90.6659 139H37.7677C32.0595 139 26.8987 137.939 22.2853 135.817C17.6718 133.696 13.6839 130.749 10.3216 126.977C7.03745 123.205 4.49615 118.844 2.69769 113.894C0.89923 108.864 0 103.482 0 97.7453C0 92.0875 0.89923 86.7833 2.69769 81.8327C4.49615 76.8035 7.03745 72.403 10.3216 68.6312C13.6839 64.7807 17.6718 61.7947 22.2853 59.673C26.8987 57.5513 32.0595 56.4905 37.7677 56.4905H90.6659V68.2776H37.7677C32.3723 68.2776 27.7197 69.6134 23.81 72.2852C19.9785 74.8783 17.0072 78.4144 14.8959 82.8935C12.7847 87.3726 11.7291 92.3232 11.7291 97.7453C11.7291 103.167 12.7847 108.118 14.8959 112.597C17.0072 116.997 19.9785 120.534 23.81 123.205C27.7197 125.877 32.3723 127.213 37.7677 127.213H78.9368V103.639H29.2054V91.8517H90.6659V139Z" fill="white"/>
<path d="M182.374 139H166.422L148.125 121.437H124.315V109.768H156.804C160.088 109.768 162.864 108.589 165.132 106.232C167.478 103.796 168.651 100.967 168.651 97.7453C168.651 94.4449 167.478 91.6553 165.132 89.3764C162.864 87.019 160.088 85.8403 156.804 85.8403H118.215V139H106.486V74.1711H156.804C161.183 74.1711 165.132 75.2319 168.651 77.3536C172.169 79.4753 174.984 82.3435 177.095 85.9582C179.207 89.4943 180.262 93.4233 180.262 97.7453C180.262 101.281 179.519 104.621 178.034 107.764C176.626 110.829 174.632 113.501 172.052 115.779C169.55 117.98 166.657 119.551 163.372 120.494L182.374 139Z" fill="white"/>
<path d="M270.23 106.468C270.23 112.44 268.979 117.901 266.477 122.852C264.053 127.724 260.612 131.653 256.155 134.639C251.698 137.546 246.498 139 240.555 139H220.147C214.204 139 208.965 137.546 204.43 134.639C199.973 131.653 196.493 127.724 193.991 122.852C191.567 117.901 190.355 112.44 190.355 106.468C190.355 100.496 191.567 95.0735 193.991 90.2015C196.493 85.3295 199.973 81.4398 204.43 78.5323C208.965 75.6248 214.204 74.1711 220.147 74.1711H240.555C246.498 74.1711 251.698 75.6248 256.155 78.5323C260.612 81.4398 264.053 85.3295 266.477 90.2015C268.979 95.0735 270.23 100.496 270.23 106.468ZM258.501 106.468C258.501 102.696 257.797 99.2383 256.39 96.0951C254.982 92.9518 252.91 90.4766 250.173 88.6692C247.515 86.7833 244.309 85.8403 240.555 85.8403H220.147C216.393 85.8403 213.148 86.7833 210.412 88.6692C207.753 90.4766 205.681 92.9518 204.195 96.0951C202.788 99.2383 202.084 102.696 202.084 106.468C202.084 110.24 202.788 113.697 204.195 116.84C205.681 119.984 207.753 122.498 210.412 124.384C213.148 126.27 216.393 127.213 220.147 127.213H240.555C244.309 127.213 247.515 126.27 250.173 124.384C252.91 122.498 254.982 119.984 256.39 116.84C257.797 113.697 258.501 110.24 258.501 106.468Z" fill="white"/>
<path d="M352.895 74.1711V106.586C352.895 111.065 352.035 115.269 350.315 119.198C348.673 123.127 346.366 126.584 343.395 129.57C340.502 132.478 337.1 134.796 333.19 136.525C329.359 138.175 325.215 139 320.758 139H314.307C309.85 139 305.666 138.175 301.756 136.525C297.925 134.796 294.524 132.439 291.552 129.452C288.659 126.466 286.352 123.048 284.632 119.198C282.99 115.269 282.169 111.065 282.169 106.586V74.1711H293.898V106.586C293.898 110.357 294.797 113.815 296.596 116.958C298.472 120.101 300.935 122.616 303.985 124.502C307.113 126.309 310.553 127.213 314.307 127.213H320.758C324.589 127.213 328.03 126.309 331.079 124.502C334.129 122.616 336.553 120.101 338.351 116.958C340.228 113.815 341.166 110.357 341.166 106.586V74.1711H352.895Z" fill="white"/>
<path d="M427.905 139C427.905 133.814 426.888 128.863 424.855 124.148C422.9 119.355 420.242 114.915 416.879 110.829C413.517 106.743 409.764 103.049 405.619 99.7491C401.475 96.4487 397.213 93.6984 392.835 91.4981C388.534 89.2978 384.39 87.7262 380.402 86.7833V139H368.673V74.1711H375.006V74.289C379.229 74.5247 383.686 75.4677 388.378 77.1179C393.147 78.6895 397.917 80.8897 402.687 83.7186C407.457 86.5475 411.992 89.8479 416.293 93.6198C420.672 97.3916 424.542 101.596 427.905 106.232V74.1711H439.634V139H427.905Z" fill="white"/>
<path d="M533 106.35C533 112.401 531.749 117.901 529.247 122.852C526.744 127.802 523.226 131.731 518.69 134.639C514.155 137.546 508.877 139 502.856 139H474.003V127.095H502.856C506.688 127.095 509.933 126.191 512.591 124.384C515.328 122.498 517.439 119.984 518.925 116.84C520.411 113.697 521.154 110.2 521.154 106.35C521.154 102.499 520.411 99.0418 518.925 95.9772C517.439 92.9125 515.328 90.4766 512.591 88.6692C509.933 86.7833 506.688 85.8403 502.856 85.8403H468.49V139H456.526V73.9354H502.856C508.877 73.9354 514.155 75.3891 518.69 78.2966C523.226 81.2041 526.744 85.0938 529.247 89.9658C531.749 94.8378 533 100.299 533 106.35Z" fill="white"/>
<path d="M148.136 44.0677V37.8995H141.93V30.9776H148.818V37.2142H166.686V25.4263H148.136V19.2582H141.93V6.23664H148.136V0H167.368V6.23664H173.642V13.0901H166.686V6.92198H148.818V18.6414H167.368V24.7409H173.642V37.8995H167.368V44.0677H148.136Z" fill="white"/>
<path d="M191.502 44.0677V37.8995H185.365V19.2582H179.159V12.4047H185.365V0H192.184V12.4047H210.871V19.2582H192.184V37.2142H210.189V30.9776H217.076V37.8995H210.871V44.0677H191.502Z" fill="white"/>
<path d="M225.312 44.0677V18.6414H231.518V12.4047H250.749V18.6414H257.024V25.4263H250.067V19.2582H232.2V44.0677H225.312Z" fill="white"/>
<path d="M269.413 44.0677V37.8995H263.207V18.6414H269.413V12.4047H288.644V18.6414H294.918V37.2142H301.124V44.0677H294.236V37.8995H288.644V44.0677H269.413ZM270.095 37.2142H287.962V19.2582H270.095V37.2142Z" fill="white"/>
<path d="M314.178 44.0677V37.8995H308.04V19.2582H301.834V12.4047H308.04V0H314.86V12.4047H333.546V19.2582H314.86V37.2142H332.864V30.9776H339.752V37.8995H333.546V44.0677H314.178Z" fill="white"/>
<path d="M361.64 44.0677V0H387.077V6.23664H393.352V13.0901H386.395V6.92198H368.528V18.6414H380.94V25.4263H368.528V44.0677H361.64Z" fill="white"/>
<path d="M394.806 44.0677V18.6414H401.012V12.4047H420.244V18.6414H426.518V25.4263H419.562V19.2582H401.694V44.0677H394.806Z" fill="white"/>
<path d="M438.907 44.0677V37.8995H432.701V18.6414H438.907V12.4047H458.138V18.6414H464.413V37.8995H458.138V44.0677H438.907ZM439.589 37.2142H457.456V19.2582H439.589V37.2142Z" fill="white"/>
<path d="M472.66 44.0677V12.4047H491.96V18.6414H497.416V12.4047H510.578V18.6414H516.716V44.0677H509.896V19.2582H498.098V44.0677H491.278V19.2582H479.548V44.0677H472.66Z" fill="white"/>
<path d="M482.073 228.343C493.881 228.343 503.786 229.292 511.698 231.268H511.699C519.642 233.221 526.143 236.026 530.959 239.851H530.958C535.816 243.609 539.267 248.228 541.151 253.699C543.071 258.797 543.999 264.427 543.999 270.54V334.613C543.999 340.73 543.069 346.411 541.159 351.615L541.161 351.616C539.268 357.004 535.791 361.575 530.918 365.334L530.906 365.344C526.105 369.015 519.629 371.745 511.713 373.693L511.714 373.694C503.8 375.673 493.889 376.623 482.073 376.623C470.624 376.623 460.913 375.731 453.017 373.88L452.259 373.697C444.335 371.749 437.815 369.022 432.905 365.375L432.857 365.34L432.812 365.303C428.085 361.549 424.651 357.013 422.64 351.698L422.618 351.644L422.6 351.587C420.823 346.393 419.959 340.722 419.959 334.613V270.54C419.959 264.433 420.822 258.813 422.609 253.726L422.618 253.699L422.628 253.673C424.632 248.234 428.064 243.621 432.812 239.851L432.831 239.835L432.852 239.819C437.774 236.022 444.315 233.221 452.259 231.268L453.017 231.086C460.913 229.235 470.624 228.343 482.073 228.343ZM132.258 231.161C135.022 231.161 137.919 231.787 139.933 233.928C142.074 235.941 142.7 238.839 142.7 241.604V269.601C142.7 272.466 142.271 275.14 141.31 277.543L141.293 277.585L141.275 277.626C140.337 279.816 138.911 281.885 137.107 283.844L98.5381 330.56H135.64C138.402 330.56 141.296 331.184 143.31 333.321C145.455 335.335 146.082 338.235 146.082 341.002V363.361C146.082 366.151 145.449 368.95 143.506 371.025L143.313 371.224C141.279 373.258 138.371 373.804 135.64 373.804H42.4424C39.6569 373.804 36.8337 373.236 34.7373 371.372L34.5762 371.229L34.4326 371.066C32.5692 368.97 32 366.147 32 363.361V338.184C32 335.425 32.435 332.844 33.4248 330.534C34.3563 328.239 35.7712 326.109 37.584 324.136L78.2393 274.782H45.8242C43.0389 274.782 40.2164 274.213 38.1201 272.35L37.958 272.206L37.8145 272.044C35.9512 269.948 35.3819 267.125 35.3818 264.34V241.604C35.3819 238.873 35.9287 235.964 37.9629 233.93L38.1611 233.737C40.2363 231.795 43.0349 231.161 45.8242 231.161H132.258ZM257.99 231.161C260.755 231.161 263.652 231.787 265.666 233.928C267.807 235.941 268.433 238.839 268.433 241.604V263.588C268.433 266.467 267.757 269.357 265.664 271.45C263.63 273.484 260.721 274.03 257.99 274.03H209.809V281.143H242.771C245.535 281.143 248.433 281.767 250.446 283.908C252.588 285.922 253.213 288.82 253.213 291.585V311.689C253.213 314.569 252.537 317.459 250.444 319.552C248.41 321.586 245.501 322.132 242.771 322.132H209.809V330.936H257.99C260.755 330.936 263.653 331.56 265.667 333.702C267.808 335.716 268.433 338.614 268.433 341.378V363.361C268.433 366.151 267.799 368.95 265.856 371.025L265.664 371.224C263.63 373.258 260.721 373.804 257.99 373.804H170.806C168.02 373.804 165.198 373.235 163.102 371.372L162.939 371.229L162.796 371.066C160.932 368.97 160.363 366.147 160.363 363.361V241.604C160.363 238.873 160.91 235.964 162.944 233.93L163.143 233.737C165.218 231.795 168.016 231.161 170.806 231.161H257.99ZM356.316 231.161C370.62 231.161 381.633 234.119 387.978 241.201C394.084 247.756 397.011 256.212 397.011 266.219V274.862C397.011 280.485 396.142 285.515 394.269 289.844C393.525 291.628 392.546 293.216 391.353 294.607C395.409 296.217 398.945 298.708 401.898 302.097L402.359 302.626C407.038 308.137 409.224 315.221 409.224 323.527V363.361C409.224 366.151 408.59 368.95 406.647 371.025L406.456 371.224C404.422 373.258 401.512 373.804 398.781 373.804H369.657C366.872 373.804 364.049 373.236 361.952 371.372L361.791 371.229L361.647 371.066C359.784 368.97 359.215 366.147 359.215 363.361V334.613C359.215 332.225 358.703 331.323 358.468 331.062L358.34 330.919L358.228 330.764C358.204 330.731 358.118 330.616 357.783 330.489C357.411 330.348 356.77 330.212 355.753 330.212H333.125V363.361C333.125 366.151 332.492 368.95 330.549 371.025L330.357 371.224C328.323 373.258 325.414 373.804 322.683 373.804H293.747C290.962 373.804 288.138 373.235 286.042 371.372L285.88 371.229L285.736 371.066C283.873 368.97 283.305 366.147 283.305 363.361V241.604C283.305 238.873 283.851 235.964 285.885 233.93L286.083 233.737C288.158 231.795 290.958 231.161 293.747 231.161H356.316ZM482.073 232.021C470.424 232.021 460.778 232.961 453.137 234.84L451.723 235.201C444.75 237.051 439.209 239.561 435.099 242.731L434.703 243.051C430.653 246.369 427.778 250.333 426.079 254.944L425.784 255.82C424.353 260.231 423.637 265.138 423.637 270.54V334.613L423.646 335.688C423.742 341.031 424.553 345.934 426.079 350.396C427.833 355.031 430.84 359.04 435.099 362.422C439.483 365.679 445.496 368.247 453.137 370.126C460.3 371.888 469.225 372.823 479.912 372.934L482.073 372.944C493.723 372.944 503.305 372.005 510.821 370.126C518.224 368.306 524.039 365.839 528.268 362.726L528.672 362.422C533.056 359.04 536.062 355.031 537.69 350.396C539.334 345.934 540.208 341.031 540.311 335.688L540.321 334.613V270.54C540.321 264.778 539.444 259.579 537.69 254.944C536.062 250.185 533.056 246.113 528.672 242.731C524.679 239.561 519.2 237.051 512.234 235.201L510.821 234.84C503.775 233.078 494.913 232.142 484.233 232.032L482.073 232.021ZM45.8242 234.84L45.3857 234.847C43.2281 234.913 41.6204 235.474 40.5635 236.53L40.3818 236.727C39.501 237.747 39.0606 239.372 39.0605 241.604V264.34L39.0664 264.778C39.1251 266.936 39.624 268.544 40.5635 269.601C41.6204 270.54 43.2278 271.039 45.3857 271.098L45.8242 271.104H86.0342L40.376 326.534C38.7477 328.288 37.5573 330.104 36.8057 331.982C36.0541 333.736 35.6778 335.804 35.6777 338.184V363.361L35.6836 363.801C35.7423 365.959 36.2422 367.566 37.1816 368.623C38.2386 369.562 39.846 370.061 42.0039 370.12L42.4424 370.126H135.64L136.078 370.12C138.085 370.065 139.564 369.627 140.517 368.805L140.713 368.623C141.77 367.566 142.331 365.958 142.397 363.801L142.404 363.361V341.002C142.404 338.622 141.84 336.931 140.713 335.929C139.773 334.872 138.228 334.31 136.078 334.244L135.64 334.237H90.7324L134.324 281.438C135.851 279.794 136.992 278.15 137.748 276.506L137.895 276.177C138.599 274.415 138.974 272.378 139.018 270.066L139.021 269.601V241.604C139.021 239.224 138.458 237.532 137.331 236.53C136.392 235.473 134.846 234.913 132.695 234.847L132.258 234.84H45.8242ZM170.806 234.84L170.367 234.847C168.21 234.913 166.602 235.474 165.545 236.53L165.362 236.727C164.482 237.747 164.042 239.373 164.042 241.604V363.361L164.048 363.801C164.107 365.959 164.606 367.566 165.545 368.623C166.602 369.562 168.209 370.061 170.367 370.12L170.806 370.126H257.99L258.429 370.12C260.436 370.065 261.915 369.627 262.867 368.805L263.063 368.623C264.12 367.566 264.682 365.958 264.748 363.801L264.755 363.361V341.378C264.755 338.998 264.191 337.307 263.063 336.305C262.124 335.248 260.579 334.686 258.429 334.62L257.99 334.613H206.131V318.454H242.771L243.209 318.448C245.216 318.393 246.695 317.955 247.647 317.133L247.844 316.951C248.901 315.894 249.462 314.287 249.528 312.129L249.535 311.689V291.585C249.535 289.205 248.971 287.514 247.844 286.512C246.904 285.455 245.359 284.893 243.209 284.827L242.771 284.82H206.131V270.353H257.99L258.429 270.347C260.436 270.292 261.915 269.853 262.867 269.031L263.063 268.85C264.12 267.793 264.682 266.185 264.748 264.027L264.755 263.588V241.604C264.755 239.224 264.191 237.532 263.063 236.53C262.124 235.474 260.579 234.913 258.429 234.847L257.99 234.84H170.806ZM293.747 234.84L293.308 234.847C291.15 234.913 289.542 235.474 288.485 236.53L288.304 236.727C287.423 237.747 286.983 239.372 286.982 241.604V363.361L286.988 363.801C287.047 365.959 287.546 367.566 288.485 368.623C289.542 369.563 291.15 370.061 293.308 370.12L293.747 370.126H322.683L323.121 370.12C325.128 370.065 326.608 369.627 327.561 368.805L327.756 368.623C328.813 367.566 329.374 365.958 329.44 363.801L329.447 363.361V326.534H355.753C358.383 326.534 360.2 327.223 361.202 328.601C362.329 329.853 362.893 331.858 362.893 334.613V363.361L362.898 363.801C362.957 365.959 363.457 367.566 364.396 368.623C365.453 369.562 367.061 370.061 369.219 370.12L369.657 370.126H398.781L399.22 370.12C401.227 370.065 402.707 369.627 403.659 368.805L403.854 368.623C404.911 367.566 405.473 365.958 405.539 363.801L405.546 363.361V323.527C405.546 315.636 403.416 309.31 399.157 304.55C395.024 299.79 389.575 297.034 382.811 296.282C386.693 294.654 389.387 292.023 390.89 288.391C392.416 284.868 393.228 280.684 393.323 275.84L393.332 274.862V266.219C393.332 256.949 390.639 249.433 385.253 243.671C380.156 237.967 370.945 235.027 357.619 234.849L356.316 234.84H293.747ZM483.312 268.672C489.368 268.775 493.277 269.648 495.038 271.292C496.917 272.92 497.856 274.925 497.856 277.305V327.849L497.846 328.314C497.736 330.619 496.799 332.593 495.038 334.237C493.159 335.866 488.837 336.681 482.073 336.681L480.833 336.671C474.778 336.575 470.87 335.764 469.108 334.237C467.347 332.593 466.411 330.619 466.301 328.314L466.29 327.849V277.305C466.29 275.074 467.115 273.172 468.767 271.602L469.108 271.292C470.988 269.538 475.309 268.661 482.073 268.661L483.312 268.672ZM482.073 272.34C478.822 272.34 476.319 272.553 474.49 272.924C472.577 273.312 471.821 273.791 471.618 273.98L471.568 274.027L471.517 274.071C470.403 275.037 469.968 276.045 469.968 277.305V327.849C469.968 329.276 470.444 330.423 471.551 331.483C471.795 331.674 472.586 332.106 474.439 332.455C476.29 332.804 478.812 333.002 482.073 333.002C485.334 333.002 487.856 332.804 489.706 332.455C491.567 332.104 492.357 331.669 492.598 331.48C493.703 330.421 494.179 329.275 494.179 327.849V277.305C494.179 276.045 493.743 275.037 492.629 274.071L492.578 274.027L492.528 273.98C492.326 273.791 491.57 273.312 489.656 272.924C487.828 272.553 485.325 272.34 482.073 272.34ZM343.54 268.661C346.797 268.661 348.989 269.538 350.116 271.292C351.243 272.92 351.807 274.987 351.807 277.492V283.881L351.801 284.347C351.735 286.651 351.173 288.626 350.116 290.27C348.989 291.898 346.797 292.712 343.54 292.712H329.447V268.661H343.54ZM333.125 289.034H343.54C346.223 289.034 346.926 288.38 347.07 288.2C347.717 287.159 348.129 285.776 348.129 283.881V277.492C348.129 275.537 347.693 274.254 347.092 273.386L347.056 273.334L347.022 273.281C346.892 273.078 346.282 272.34 343.54 272.34H333.125V289.034Z" fill="white"/>
</svg>
