<svg width="24" height="25" viewBox="0 0 24 25" fill="none" xmlns="http://www.w3.org/2000/svg">
<path d="M4.74991 3.5C4.74991 3.08579 5.0857 2.75 5.49991 2.75C5.91413 2.75 6.24991 3.08579 6.24991 3.5V19.9609C6.25169 19.9588 6.25399 19.9572 6.25577 19.9551C6.48281 19.6871 6.70442 19.4024 6.91007 19.1406C7.10221 18.896 7.30466 18.6393 7.46183 18.4775C7.75046 18.1807 8.22538 18.1735 8.52237 18.4619C8.81922 18.7505 8.82638 19.2255 8.538 19.5225C8.44921 19.6138 8.30297 19.796 8.08976 20.0674C7.88993 20.3218 7.64922 20.631 7.4003 20.9248C7.15414 21.2153 6.87883 21.5174 6.60343 21.752C6.46555 21.8694 6.30966 21.9847 6.14249 22.0742C5.98108 22.1606 5.7582 22.25 5.49991 22.25C5.24163 22.25 5.01874 22.1606 4.85733 22.0742C4.69016 21.9847 4.53428 21.8694 4.3964 21.752C4.121 21.5174 3.84569 21.2153 3.59952 20.9248C3.3506 20.631 3.1099 20.3218 2.91007 20.0674C2.80349 19.9317 2.71372 19.8183 2.63956 19.7275L2.46183 19.5225L2.41104 19.4648C2.17529 19.1669 2.19917 18.7325 2.47745 18.4619C2.75586 18.1916 3.19031 18.1806 3.48136 18.4248L3.538 18.4775L3.663 18.6143C3.7953 18.7663 3.94545 18.9569 4.08976 19.1406C4.2954 19.4024 4.51702 19.6871 4.74405 19.9551C4.74583 19.9572 4.74813 19.9588 4.74991 19.9609V3.5ZM13.9999 15.75C14.4141 15.75 14.7499 16.0858 14.7499 16.5C14.7499 16.9142 14.4141 17.25 13.9999 17.25H10.9999C10.5857 17.25 10.2499 16.9142 10.2499 16.5C10.2499 16.0858 10.5857 15.75 10.9999 15.75H13.9999ZM15.9999 11.75C16.4141 11.75 16.7499 12.0858 16.7499 12.5C16.7499 12.9142 16.4141 13.25 15.9999 13.25H10.9999C10.5857 13.25 10.2499 12.9142 10.2499 12.5C10.2499 12.0858 10.5857 11.75 10.9999 11.75H15.9999ZM18.9999 7.75C19.4141 7.75 19.7499 8.08579 19.7499 8.5C19.7499 8.91421 19.4141 9.25 18.9999 9.25H10.9999C10.5857 9.25 10.2499 8.91421 10.2499 8.5C10.2499 8.08579 10.5857 7.75 10.9999 7.75H18.9999ZM20.9999 3.75C21.4141 3.75 21.7499 4.08579 21.7499 4.5C21.7499 4.91421 21.4141 5.25 20.9999 5.25H10.9999C10.5857 5.25 10.2499 4.91421 10.2499 4.5C10.2499 4.08579 10.5857 3.75 10.9999 3.75H20.9999Z" fill="#999999"/>
</svg>
