<svg width="54" height="24" viewBox="0 0 54 24" fill="none" xmlns="http://www.w3.org/2000/svg">
<path d="M53.3636 11.5586C53.3636 9.95142 53.1104 8.44329 52.604 7.03423C52.0977 5.64719 51.3711 4.42527 50.4244 3.36848C49.4997 2.31169 48.3769 1.48607 47.0559 0.891621C45.7569 0.297174 44.3148 -4.95911e-05 42.7296 -4.95911e-05H31.0719V3.30243H42.7296C44.2488 3.30243 45.5588 3.67671 46.6596 4.42527C47.7604 5.17384 48.597 6.16458 49.1695 7.3975C49.7639 8.65245 50.0611 10.0395 50.0611 11.5586C50.0611 13.0778 49.7639 14.4648 49.1695 15.7198C48.597 16.9747 47.7604 17.9654 46.6596 18.692C45.5588 19.4405 44.2488 19.8148 42.7296 19.8148H29.4206V-4.95911e-05H26.1182V23.1173H42.7296C44.3148 23.1173 45.7569 22.8201 47.0559 22.2256C48.3769 21.6312 49.4997 20.7946 50.4244 19.7158C51.3711 18.659 52.0977 17.426 52.604 16.017C53.1104 14.6299 53.3636 13.1438 53.3636 11.5586Z" fill="white"/>
<path d="M21.4661 16.5123C21.4661 15.5216 21.257 14.5969 20.8386 13.7383C20.4423 12.8796 19.8919 12.1531 19.1874 11.5586C19.8919 10.9422 20.4423 10.2046 20.8386 9.34597C21.257 8.48732 21.4661 7.57364 21.4661 6.60491C21.4661 5.394 21.1689 4.28217 20.5744 3.26941C19.98 2.27866 19.1764 1.48607 18.1636 0.891621C17.1729 0.297174 16.0721 -4.95911e-05 14.8612 -4.95911e-05H0V3.30243H14.8612C15.7638 3.30243 16.5344 3.62167 17.1729 4.26015C17.8334 4.92064 18.1636 5.70223 18.1636 6.60491C18.1636 7.50759 17.8334 8.27817 17.1729 8.91665C16.5344 9.57714 15.7638 9.90739 14.8612 9.90739H4.16113V13.2099H14.8612C15.7638 13.2099 16.5344 13.5291 17.1729 14.1676C17.8334 14.8281 18.1636 15.6097 18.1636 16.5123C18.1636 17.415 17.8334 18.1856 17.1729 18.8241C16.5344 19.4846 15.7638 19.8148 14.8612 19.8148H0V23.1173H14.8612C16.0721 23.1173 17.1729 22.8201 18.1636 22.2256C19.1764 21.6312 19.98 20.8276 20.5744 19.8148C21.1689 18.8241 21.4661 17.7233 21.4661 16.5123Z" fill="white"/>
</svg>
