<svg width="24" height="24" viewBox="0 0 24 24" fill="none" xmlns="http://www.w3.org/2000/svg">
<path d="M15.5556 8.62091V15.1509C15.5553 16.366 15.1814 17.5509 14.4857 18.541C13.7901 19.5312 12.8072 20.2774 11.6736 20.6761C10.54 21.0748 9.31192 21.1062 8.15989 20.766C7.00786 20.4257 5.98905 19.7307 5.24492 18.7773C4.50079 17.824 4.06828 16.6598 4.00743 15.4462C3.94659 14.2326 4.26044 13.03 4.90539 12.0053C5.55035 10.9806 6.49441 10.1846 7.60648 9.72799C8.71856 9.27134 9.94346 9.17665 11.1111 9.45707V12.304C10.5021 12.0114 9.81566 11.9271 9.1552 12.0637C8.49474 12.2003 7.89596 12.5504 7.44898 13.0614C7.002 13.5723 6.73099 14.2164 6.67676 14.8968C6.62252 15.5771 6.78798 16.2569 7.14824 16.8338C7.5085 17.4107 8.04407 17.8536 8.67434 18.0957C9.30461 18.3377 9.99548 18.366 10.643 18.1762C11.2905 17.9864 11.8596 17.5887 12.2646 17.0431C12.6697 16.4975 12.8888 15.8334 12.8889 15.1509V3H15.5556C15.5556 4.19356 16.0238 5.33824 16.8573 6.18221C17.6908 7.02619 18.8213 7.50033 20 7.50033V10.2005C18.384 10.2027 16.8157 9.64532 15.5556 8.62091Z" fill="white"/>
</svg>
